<svg width="442" height="438" viewBox="0 0 442 438" fill="none" xmlns="http://www.w3.org/2000/svg">
<path d="M378.94 1.73871C367.207 5.47205 355.473 16.0054 350.14 27.6054C346.007 36.6721 346.007 54.0054 350.273 63.2054L353.34 69.7387L299.607 123.605C257.073 166.139 245.34 177.205 243.207 176.672C223.74 171.739 221.34 171.472 211.873 173.072C187.473 177.472 170.407 201.072 174.54 224.672C175.34 229.472 176.94 235.472 178.14 238.005L180.407 242.672L125.873 297.205L71.2066 351.739L63.8733 349.205C53.74 345.605 39.4733 345.739 29.8733 349.339C20.0067 352.939 9.07332 363.205 4.40665 372.939C-0.660014 383.605 -1.46001 397.605 2.53999 408.139C6.40665 418.672 15.34 428.139 26.2733 433.472C34.4067 437.472 36.14 437.872 47.8733 437.872C58.8066 437.872 61.6066 437.339 68.14 434.272C77.34 430.005 86.2733 421.339 90.4066 412.805L93.4733 406.539H140.007H186.54L189.207 411.739C196.273 425.739 217.873 433.072 234.54 427.205C242.007 424.539 249.74 418.272 253.473 411.739L256.407 406.539H303.207H350.007L351.607 411.072C354.407 418.672 364.407 428.672 374.273 433.472C382.407 437.472 384.14 437.872 395.873 437.872C407.207 437.872 409.34 437.472 415.873 434.139C425.873 428.939 433.607 421.072 438.14 411.339C441.207 404.539 441.873 401.339 441.873 392.539C441.873 383.072 441.34 380.805 437.473 372.939C428.007 353.739 409.34 344.005 387.473 346.805C372.807 348.805 358.407 359.205 352.007 372.272L348.94 378.539H302.407C265.74 378.539 255.873 378.139 255.873 376.805C255.873 373.339 249.073 365.339 242.54 361.072L235.873 356.805V310.405V264.005L242.94 260.805C252.673 256.405 259.073 250.272 263.34 241.739L266.807 234.539H311.207H355.607L356.407 237.739C357.873 243.872 367.073 253.739 375.207 257.739C381.873 261.205 384.407 261.739 394.407 261.739C404.407 261.872 406.94 261.339 413.473 258.139C421.607 254.139 427.473 248.272 432.14 239.472C436.54 231.339 436.54 211.072 432.273 203.072C428.273 195.605 418.273 185.739 412.54 183.739L407.873 182.005V136.539V90.9387L413.073 89.3387C421.073 87.0721 432.407 75.872 437.473 65.472C441.34 57.7387 441.873 55.3387 441.873 45.872C441.873 37.2054 441.207 33.872 438.407 27.872C429.74 9.47205 414.273 -0.261292 394.007 0.00537109C388.807 0.00537109 382.007 0.805389 378.94 1.73871ZM376.407 90.0054C378.273 90.6721 378.54 96.1387 378.54 137.072V183.205L374.273 185.072C368.94 187.472 359.473 197.072 357.207 202.405L355.607 206.539H311.207H266.94L265.74 202.405C264.54 198.272 264.807 197.872 319.207 143.739C349.207 113.739 374.007 89.2054 374.14 89.2054C374.273 89.2054 375.207 89.6054 376.407 90.0054ZM204.407 262.005C206.273 262.672 206.54 268.139 206.407 310.405V357.872L200.14 361.872C196.673 364.005 192.14 368.672 189.873 372.139L185.873 378.405H139.473L93.2066 378.539L91.74 374.939C90.4066 371.472 92.14 369.605 145.473 316.272C175.74 286.005 200.94 261.205 201.473 261.205C201.873 261.205 203.207 261.605 204.407 262.005Z" fill="#3B82F6"/>
</svg>
